<mxfile host="app.diagrams.net" modified="2024-01-09T11:57:17.170Z" agent="Mozilla/5.0 (Macintosh; Intel Mac OS X 10_15_7) AppleWebKit/605.1.15 (KHTML, like Gecko) Version/16.6 Safari/605.1.15" etag="xgQqh3C8lvpSvcPkOjqD" version="22.1.16" type="device">
  <diagram name="Page-1" id="GgEGTPEN-qeT1vFl0a_V">
    <mxGraphModel dx="1921" dy="1022" grid="1" gridSize="10" guides="1" tooltips="1" connect="1" arrows="1" fold="1" page="1" pageScale="1" pageWidth="850" pageHeight="1100" math="0" shadow="0">
      <root>
        <mxCell id="0" />
        <mxCell id="1" parent="0" />
        <mxCell id="H_1t4GFyT1GPn1eItKTf-36" value="" style="rounded=0;whiteSpace=wrap;html=1;" vertex="1" parent="1">
          <mxGeometry x="440" y="145" width="320" height="185" as="geometry" />
        </mxCell>
        <mxCell id="H_1t4GFyT1GPn1eItKTf-40" style="edgeStyle=orthogonalEdgeStyle;rounded=0;orthogonalLoop=1;jettySize=auto;html=1;exitX=0.5;exitY=1;exitDx=0;exitDy=0;entryX=0.5;entryY=0;entryDx=0;entryDy=0;" edge="1" parent="1" source="H_1t4GFyT1GPn1eItKTf-24" target="H_1t4GFyT1GPn1eItKTf-35">
          <mxGeometry relative="1" as="geometry">
            <Array as="points">
              <mxPoint x="920" y="520" />
              <mxPoint x="635" y="520" />
            </Array>
          </mxGeometry>
        </mxCell>
        <mxCell id="H_1t4GFyT1GPn1eItKTf-41" value="Retrieve Manage Data" style="edgeLabel;html=1;align=center;verticalAlign=middle;resizable=0;points=[];" vertex="1" connectable="0" parent="H_1t4GFyT1GPn1eItKTf-40">
          <mxGeometry x="0.0029" y="3" relative="1" as="geometry">
            <mxPoint as="offset" />
          </mxGeometry>
        </mxCell>
        <mxCell id="H_1t4GFyT1GPn1eItKTf-24" value="" style="rounded=0;whiteSpace=wrap;html=1;" vertex="1" parent="1">
          <mxGeometry x="850" y="145" width="180" height="350" as="geometry" />
        </mxCell>
        <mxCell id="H_1t4GFyT1GPn1eItKTf-5" style="edgeStyle=orthogonalEdgeStyle;rounded=0;orthogonalLoop=1;jettySize=auto;html=1;exitX=1;exitY=0.5;exitDx=0;exitDy=0;entryX=0;entryY=0.5;entryDx=0;entryDy=0;" edge="1" parent="1" source="H_1t4GFyT1GPn1eItKTf-1" target="H_1t4GFyT1GPn1eItKTf-2">
          <mxGeometry relative="1" as="geometry" />
        </mxCell>
        <mxCell id="H_1t4GFyT1GPn1eItKTf-6" value="/frontend" style="edgeLabel;html=1;align=center;verticalAlign=middle;resizable=0;points=[];" vertex="1" connectable="0" parent="H_1t4GFyT1GPn1eItKTf-5">
          <mxGeometry x="0.0111" y="2" relative="1" as="geometry">
            <mxPoint as="offset" />
          </mxGeometry>
        </mxCell>
        <mxCell id="H_1t4GFyT1GPn1eItKTf-10" style="edgeStyle=orthogonalEdgeStyle;rounded=0;orthogonalLoop=1;jettySize=auto;html=1;exitX=1;exitY=0.25;exitDx=0;exitDy=0;entryX=0;entryY=0.5;entryDx=0;entryDy=0;" edge="1" parent="1" source="H_1t4GFyT1GPn1eItKTf-1" target="H_1t4GFyT1GPn1eItKTf-9">
          <mxGeometry relative="1" as="geometry" />
        </mxCell>
        <mxCell id="H_1t4GFyT1GPn1eItKTf-12" value="/group2/" style="edgeLabel;html=1;align=center;verticalAlign=middle;resizable=0;points=[];" vertex="1" connectable="0" parent="H_1t4GFyT1GPn1eItKTf-10">
          <mxGeometry x="-0.0316" relative="1" as="geometry">
            <mxPoint as="offset" />
          </mxGeometry>
        </mxCell>
        <mxCell id="H_1t4GFyT1GPn1eItKTf-11" style="edgeStyle=orthogonalEdgeStyle;rounded=0;orthogonalLoop=1;jettySize=auto;html=1;exitX=1;exitY=0;exitDx=0;exitDy=0;entryX=0;entryY=0.5;entryDx=0;entryDy=0;" edge="1" parent="1" source="H_1t4GFyT1GPn1eItKTf-1" target="H_1t4GFyT1GPn1eItKTf-8">
          <mxGeometry relative="1" as="geometry">
            <Array as="points">
              <mxPoint x="390" y="290" />
              <mxPoint x="390" y="200" />
            </Array>
          </mxGeometry>
        </mxCell>
        <mxCell id="H_1t4GFyT1GPn1eItKTf-13" value="/group1/" style="edgeLabel;html=1;align=center;verticalAlign=middle;resizable=0;points=[];" vertex="1" connectable="0" parent="H_1t4GFyT1GPn1eItKTf-11">
          <mxGeometry x="0.5867" y="1" relative="1" as="geometry">
            <mxPoint as="offset" />
          </mxGeometry>
        </mxCell>
        <mxCell id="H_1t4GFyT1GPn1eItKTf-44" style="edgeStyle=orthogonalEdgeStyle;rounded=0;orthogonalLoop=1;jettySize=auto;html=1;exitX=0.25;exitY=1;exitDx=0;exitDy=0;" edge="1" parent="1" source="H_1t4GFyT1GPn1eItKTf-1" target="H_1t4GFyT1GPn1eItKTf-35">
          <mxGeometry relative="1" as="geometry">
            <Array as="points">
              <mxPoint x="290" y="520" />
              <mxPoint x="635" y="520" />
            </Array>
          </mxGeometry>
        </mxCell>
        <mxCell id="H_1t4GFyT1GPn1eItKTf-45" value="View Access Log" style="edgeLabel;html=1;align=center;verticalAlign=middle;resizable=0;points=[];" vertex="1" connectable="0" parent="H_1t4GFyT1GPn1eItKTf-44">
          <mxGeometry x="-0.2" y="-3" relative="1" as="geometry">
            <mxPoint as="offset" />
          </mxGeometry>
        </mxCell>
        <mxCell id="H_1t4GFyT1GPn1eItKTf-1" value="Nginx" style="rounded=0;whiteSpace=wrap;html=1;fillColor=#fff2cc;strokeColor=#d6b656;" vertex="1" parent="1">
          <mxGeometry x="200" y="290" width="180" height="60" as="geometry" />
        </mxCell>
        <mxCell id="H_1t4GFyT1GPn1eItKTf-18" style="edgeStyle=orthogonalEdgeStyle;rounded=0;orthogonalLoop=1;jettySize=auto;html=1;exitX=0.5;exitY=1;exitDx=0;exitDy=0;" edge="1" parent="1" source="H_1t4GFyT1GPn1eItKTf-2" target="H_1t4GFyT1GPn1eItKTf-1">
          <mxGeometry relative="1" as="geometry">
            <Array as="points">
              <mxPoint x="500" y="500" />
              <mxPoint x="320" y="500" />
            </Array>
          </mxGeometry>
        </mxCell>
        <mxCell id="H_1t4GFyT1GPn1eItKTf-19" value="Requesting Text of Article" style="edgeLabel;html=1;align=center;verticalAlign=middle;resizable=0;points=[];" vertex="1" connectable="0" parent="H_1t4GFyT1GPn1eItKTf-18">
          <mxGeometry x="-0.3657" y="4" relative="1" as="geometry">
            <mxPoint as="offset" />
          </mxGeometry>
        </mxCell>
        <mxCell id="H_1t4GFyT1GPn1eItKTf-42" style="edgeStyle=orthogonalEdgeStyle;rounded=0;orthogonalLoop=1;jettySize=auto;html=1;exitX=0.75;exitY=1;exitDx=0;exitDy=0;entryX=0.5;entryY=0;entryDx=0;entryDy=0;" edge="1" parent="1" source="H_1t4GFyT1GPn1eItKTf-2" target="H_1t4GFyT1GPn1eItKTf-35">
          <mxGeometry relative="1" as="geometry">
            <Array as="points">
              <mxPoint x="530" y="520" />
              <mxPoint x="635" y="520" />
            </Array>
          </mxGeometry>
        </mxCell>
        <mxCell id="H_1t4GFyT1GPn1eItKTf-43" value="View Request Log" style="edgeLabel;html=1;align=center;verticalAlign=middle;resizable=0;points=[];" vertex="1" connectable="0" parent="H_1t4GFyT1GPn1eItKTf-42">
          <mxGeometry x="-0.3143" y="1" relative="1" as="geometry">
            <mxPoint y="-19" as="offset" />
          </mxGeometry>
        </mxCell>
        <mxCell id="H_1t4GFyT1GPn1eItKTf-2" value="Python" style="rounded=0;whiteSpace=wrap;html=1;fillColor=#fff2cc;strokeColor=#d6b656;" vertex="1" parent="1">
          <mxGeometry x="440" y="420" width="120" height="60" as="geometry" />
        </mxCell>
        <mxCell id="H_1t4GFyT1GPn1eItKTf-31" style="edgeStyle=orthogonalEdgeStyle;rounded=0;orthogonalLoop=1;jettySize=auto;html=1;entryX=0;entryY=0.5;entryDx=0;entryDy=0;" edge="1" parent="1" source="H_1t4GFyT1GPn1eItKTf-4" target="H_1t4GFyT1GPn1eItKTf-1">
          <mxGeometry relative="1" as="geometry" />
        </mxCell>
        <mxCell id="H_1t4GFyT1GPn1eItKTf-32" value="Request" style="edgeLabel;html=1;align=center;verticalAlign=middle;resizable=0;points=[];" vertex="1" connectable="0" parent="H_1t4GFyT1GPn1eItKTf-31">
          <mxGeometry x="0.0286" y="-2" relative="1" as="geometry">
            <mxPoint as="offset" />
          </mxGeometry>
        </mxCell>
        <mxCell id="H_1t4GFyT1GPn1eItKTf-4" value="Web Page" style="rounded=1;whiteSpace=wrap;html=1;fillColor=#dae8fc;strokeColor=#6c8ebf;" vertex="1" parent="1">
          <mxGeometry x="30" y="290" width="110" height="60" as="geometry" />
        </mxCell>
        <mxCell id="H_1t4GFyT1GPn1eItKTf-28" style="edgeStyle=orthogonalEdgeStyle;rounded=0;orthogonalLoop=1;jettySize=auto;html=1;exitX=1;exitY=0.383;exitDx=0;exitDy=0;entryX=0;entryY=0.25;entryDx=0;entryDy=0;exitPerimeter=0;" edge="1" parent="1" source="H_1t4GFyT1GPn1eItKTf-15" target="H_1t4GFyT1GPn1eItKTf-24">
          <mxGeometry relative="1" as="geometry" />
        </mxCell>
        <mxCell id="H_1t4GFyT1GPn1eItKTf-29" value="Update Location" style="edgeLabel;html=1;align=center;verticalAlign=middle;resizable=0;points=[];" vertex="1" connectable="0" parent="H_1t4GFyT1GPn1eItKTf-28">
          <mxGeometry x="-0.0444" relative="1" as="geometry">
            <mxPoint as="offset" />
          </mxGeometry>
        </mxCell>
        <mxCell id="H_1t4GFyT1GPn1eItKTf-20" value="Mongo DB1" style="rounded=0;whiteSpace=wrap;html=1;fillColor=#e1d5e7;strokeColor=#9673a6;" vertex="1" parent="1">
          <mxGeometry x="860" y="177" width="120" height="60" as="geometry" />
        </mxCell>
        <mxCell id="H_1t4GFyT1GPn1eItKTf-21" value="Mongo DB2" style="rounded=0;whiteSpace=wrap;html=1;fillColor=#e1d5e7;strokeColor=#9673a6;" vertex="1" parent="1">
          <mxGeometry x="860" y="257" width="120" height="60" as="geometry" />
        </mxCell>
        <mxCell id="H_1t4GFyT1GPn1eItKTf-22" value="Mongo DB backup" style="rounded=0;whiteSpace=wrap;html=1;fillColor=#e1d5e7;strokeColor=#9673a6;" vertex="1" parent="1">
          <mxGeometry x="860" y="337" width="120" height="60" as="geometry" />
        </mxCell>
        <mxCell id="H_1t4GFyT1GPn1eItKTf-23" value="Mongo DB2 backup" style="rounded=0;whiteSpace=wrap;html=1;fillColor=#e1d5e7;strokeColor=#9673a6;" vertex="1" parent="1">
          <mxGeometry x="860" y="417" width="120" height="60" as="geometry" />
        </mxCell>
        <mxCell id="H_1t4GFyT1GPn1eItKTf-26" style="edgeStyle=orthogonalEdgeStyle;rounded=0;orthogonalLoop=1;jettySize=auto;html=1;exitX=1;exitY=0.5;exitDx=0;exitDy=0;entryX=-0.011;entryY=0.874;entryDx=0;entryDy=0;entryPerimeter=0;" edge="1" parent="1" source="H_1t4GFyT1GPn1eItKTf-2" target="H_1t4GFyT1GPn1eItKTf-24">
          <mxGeometry relative="1" as="geometry" />
        </mxCell>
        <mxCell id="H_1t4GFyT1GPn1eItKTf-27" value="Get FIle&lt;br&gt;Location" style="edgeLabel;html=1;align=center;verticalAlign=middle;resizable=0;points=[];" vertex="1" connectable="0" parent="H_1t4GFyT1GPn1eItKTf-26">
          <mxGeometry x="-0.0119" y="-2" relative="1" as="geometry">
            <mxPoint as="offset" />
          </mxGeometry>
        </mxCell>
        <mxCell id="H_1t4GFyT1GPn1eItKTf-33" style="edgeStyle=orthogonalEdgeStyle;rounded=0;orthogonalLoop=1;jettySize=auto;html=1;exitX=1;exitY=0.25;exitDx=0;exitDy=0;entryX=0.006;entryY=0.826;entryDx=0;entryDy=0;entryPerimeter=0;" edge="1" parent="1" source="H_1t4GFyT1GPn1eItKTf-2" target="H_1t4GFyT1GPn1eItKTf-24">
          <mxGeometry relative="1" as="geometry" />
        </mxCell>
        <mxCell id="H_1t4GFyT1GPn1eItKTf-34" value="Get Data" style="edgeLabel;html=1;align=center;verticalAlign=middle;resizable=0;points=[];" vertex="1" connectable="0" parent="H_1t4GFyT1GPn1eItKTf-33">
          <mxGeometry x="-0.0338" y="1" relative="1" as="geometry">
            <mxPoint as="offset" />
          </mxGeometry>
        </mxCell>
        <mxCell id="H_1t4GFyT1GPn1eItKTf-35" value="Host Master" style="rounded=0;whiteSpace=wrap;html=1;fillColor=#fff2cc;strokeColor=#d6b656;" vertex="1" parent="1">
          <mxGeometry x="260" y="550" width="750" height="30" as="geometry" />
        </mxCell>
        <mxCell id="H_1t4GFyT1GPn1eItKTf-37" value="DBMS" style="text;html=1;align=center;verticalAlign=middle;resizable=0;points=[];autosize=1;strokeColor=none;fillColor=none;" vertex="1" parent="1">
          <mxGeometry x="890" y="147" width="60" height="30" as="geometry" />
        </mxCell>
        <mxCell id="H_1t4GFyT1GPn1eItKTf-38" value="DFS" style="text;html=1;align=center;verticalAlign=middle;resizable=0;points=[];autosize=1;strokeColor=none;fillColor=none;" vertex="1" parent="1">
          <mxGeometry x="575" y="145" width="50" height="30" as="geometry" />
        </mxCell>
        <mxCell id="H_1t4GFyT1GPn1eItKTf-8" value="Storage0" style="rounded=0;whiteSpace=wrap;html=1;fillColor=#d5e8d4;strokeColor=#82b366;" vertex="1" parent="1">
          <mxGeometry x="460" y="170" width="120" height="60" as="geometry" />
        </mxCell>
        <mxCell id="H_1t4GFyT1GPn1eItKTf-9" value="Storage1" style="rounded=0;whiteSpace=wrap;html=1;fillColor=#d5e8d4;strokeColor=#82b366;" vertex="1" parent="1">
          <mxGeometry x="460" y="240" width="120" height="60" as="geometry" />
        </mxCell>
        <mxCell id="H_1t4GFyT1GPn1eItKTf-15" value="Tracker" style="rounded=0;whiteSpace=wrap;html=1;fillColor=#d5e8d4;strokeColor=#82b366;" vertex="1" parent="1">
          <mxGeometry x="620" y="210" width="120" height="60" as="geometry" />
        </mxCell>
        <mxCell id="H_1t4GFyT1GPn1eItKTf-16" value="" style="endArrow=classic;startArrow=classic;html=1;rounded=0;exitX=1;exitY=0.5;exitDx=0;exitDy=0;entryX=0;entryY=0.5;entryDx=0;entryDy=0;" edge="1" parent="1" source="H_1t4GFyT1GPn1eItKTf-8" target="H_1t4GFyT1GPn1eItKTf-15">
          <mxGeometry width="50" height="50" relative="1" as="geometry">
            <mxPoint x="610" y="480" as="sourcePoint" />
            <mxPoint x="660" y="430" as="targetPoint" />
          </mxGeometry>
        </mxCell>
        <mxCell id="H_1t4GFyT1GPn1eItKTf-17" value="" style="endArrow=classic;startArrow=classic;html=1;rounded=0;exitX=1;exitY=0.5;exitDx=0;exitDy=0;entryX=0;entryY=0.5;entryDx=0;entryDy=0;" edge="1" parent="1" source="H_1t4GFyT1GPn1eItKTf-9" target="H_1t4GFyT1GPn1eItKTf-15">
          <mxGeometry width="50" height="50" relative="1" as="geometry">
            <mxPoint x="630" y="470" as="sourcePoint" />
            <mxPoint x="680" y="420" as="targetPoint" />
          </mxGeometry>
        </mxCell>
        <mxCell id="H_1t4GFyT1GPn1eItKTf-46" value="" style="rounded=0;whiteSpace=wrap;html=1;fillColor=#f8cecc;strokeColor=#b85450;" vertex="1" parent="1">
          <mxGeometry x="210" y="100" width="20" height="500" as="geometry" />
        </mxCell>
        <mxCell id="H_1t4GFyT1GPn1eItKTf-47" value="Firewall" style="text;html=1;align=center;verticalAlign=middle;resizable=0;points=[];autosize=1;strokeColor=none;fillColor=none;rotation=-90;" vertex="1" parent="1">
          <mxGeometry x="190" y="305" width="60" height="30" as="geometry" />
        </mxCell>
      </root>
    </mxGraphModel>
  </diagram>
</mxfile>
